<?xml version="1.0" encoding="utf-8"?>
<!-- Generated by Mocodo 4.2.12 -->
<svg width="1552" height="853" viewBox="0 0 1552 853" xmlns="http://www.w3.org/2000/svg">
<rect x="0" y="0" width="1552" height="853" fill="#ffffbf" stroke="none" stroke-width="0"/>

<!-- Association SCORE -->
<g>
	<line x1="153" y1="481" x2="768" y2="245" stroke="#f46d43" stroke-width="2"/>
	<line x1="1165" y1="481" x2="768" y2="245" stroke="#f46d43" stroke-width="2"/>
	<g>
		<path d="M783 220 a14 14 90 0 1 14 14 V245 h-58 V234 a14 14 90 0 1 14 -14" fill="#fdae61" stroke="#fdae61" stroke-width="0"/>
		<path d="M797 245 v11 a14 14 90 0 1 -14 14 H753 a14 14 90 0 1 -14 -14 V245 H58" fill="#fee08b" stroke="#fee08b" stroke-width="0"/>
		<rect x="739" y="220" width="58" height="50" fill="none" rx="14" stroke="#f46d43" stroke-width="2"/>
		<line x1="739" y1="245" x2="797" y2="245" stroke="#f46d43" stroke-width="1"/>
		<text x="747" y="237.75" fill="#000000" font-family="Verdana" font-size="12">SCORE</text>
		<text x="746" y="262.8" fill="#000000" font-family="Verdana" font-size="12">stars</text>
	</g>
	<text x="198" y="479.65" fill="#1a9850" font-family="Verdana" font-size="12">1,1</text>
	<text x="1099" y="469.62" fill="#1a9850" font-family="Verdana" font-size="12">1,1</text>
</g>

<!-- Association PIZZA_PRICE_SIZE -->
<g>
	<line x1="1165" y1="481" x2="1165" y2="245" stroke="#f46d43" stroke-width="2"/>
	<line x1="1165" y1="68" x2="1165" y2="245" stroke="#f46d43" stroke-width="2"/>
	<line x1="1313" y1="68" x2="1165" y2="245" stroke="#f46d43" stroke-width="2"/>
	<g>
		<path d="M1218 220 a14 14 90 0 1 14 14 V245 h-134 V234 a14 14 90 0 1 14 -14" fill="#fdae61" stroke="#fdae61" stroke-width="0"/>
		<path d="M1232 245 v11 a14 14 90 0 1 -14 14 H1112 a14 14 90 0 1 -14 -14 V245 H134" fill="#fee08b" stroke="#fee08b" stroke-width="0"/>
		<rect x="1098" y="220" width="134" height="50" fill="none" rx="14" stroke="#f46d43" stroke-width="2"/>
		<line x1="1098" y1="245" x2="1232" y2="245" stroke="#f46d43" stroke-width="1"/>
		<text x="1106" y="237.75" fill="#000000" font-family="Verdana" font-size="12">PIZZA_PRICE_SIZE</text>
	</g>
	<text x="1170" y="422" fill="#1a9850" font-family="Verdana" font-size="12">1,1</text>
	<text x="1170" y="144" fill="#1a9850" font-family="Verdana" font-size="12">1,1</text>
	<text x="1247" y="114.02" fill="#1a9850" font-family="Verdana" font-size="12">1,1</text>
</g>

<!-- Association APP_USER_HAS_ROLE -->
<g>
	<line x1="153" y1="481" x2="153" y2="346" stroke="#f46d43" stroke-width="2"/>
	<line x1="153" y1="245" x2="153" y2="346" stroke="#f46d43" stroke-width="2"/>
	<g>
		<path d="M215 321 a14 14 90 0 1 14 14 V346 h-152 V335 a14 14 90 0 1 14 -14" fill="#fdae61" stroke="#fdae61" stroke-width="0"/>
		<path d="M229 346 v11 a14 14 90 0 1 -14 14 H91 a14 14 90 0 1 -14 -14 V346 H152" fill="#fee08b" stroke="#fee08b" stroke-width="0"/>
		<rect x="77" y="321" width="152" height="50" fill="none" rx="14" stroke="#f46d43" stroke-width="2"/>
		<line x1="77" y1="346" x2="229" y2="346" stroke="#f46d43" stroke-width="1"/>
		<text x="85" y="338.75" fill="#000000" font-family="Verdana" font-size="12">APP_USER_HAS_ROLE</text>
	</g>
	<text x="127" y="388" fill="#1a9850" font-family="Verdana" font-size="12">1,1</text>
	<text x="158" y="313" fill="#1a9850" font-family="Verdana" font-size="12">0,N</text>
</g>

<!-- Association CREATE -->
<g>
	<line x1="153" y1="481" x2="768" y2="346" stroke="#f46d43" stroke-width="2"/>
	<line x1="1165" y1="481" x2="768" y2="346" stroke="#f46d43" stroke-width="2"/>
	<g>
		<path d="M786 321 a14 14 90 0 1 14 14 V346 h-64 V335 a14 14 90 0 1 14 -14" fill="#fdae61" stroke="#fdae61" stroke-width="0"/>
		<path d="M800 346 v11 a14 14 90 0 1 -14 14 H750 a14 14 90 0 1 -14 -14 V346 H64" fill="#fee08b" stroke="#fee08b" stroke-width="0"/>
		<rect x="736" y="321" width="64" height="50" fill="none" rx="14" stroke="#f46d43" stroke-width="2"/>
		<line x1="736" y1="346" x2="800" y2="346" stroke="#f46d43" stroke-width="1"/>
		<text x="744" y="338.75" fill="#000000" font-family="Verdana" font-size="12">CREATE</text>
	</g>
	<text x="198" y="487.54" fill="#1a9850" font-family="Verdana" font-size="12">0,N</text>
	<text x="1099" y="481.75" fill="#1a9850" font-family="Verdana" font-size="12">1,1</text>
</g>

<!-- Association PIZZA_HAS_LABEL -->
<g>
	<line x1="1165" y1="481" x2="1313" y2="346" stroke="#f46d43" stroke-width="2"/>
	<line x1="1461" y1="245" x2="1313" y2="346" stroke="#f46d43" stroke-width="2"/>
	<g>
		<path d="M1364 321 a14 14 90 0 1 14 14 V346 h-130 V335 a14 14 90 0 1 14 -14" fill="#fdae61" stroke="#fdae61" stroke-width="0"/>
		<path d="M1378 346 v11 a14 14 90 0 1 -14 14 H1262 a14 14 90 0 1 -14 -14 V346 H130" fill="#fee08b" stroke="#fee08b" stroke-width="0"/>
		<rect x="1248" y="321" width="130" height="50" fill="none" rx="14" stroke="#f46d43" stroke-width="2"/>
		<line x1="1248" y1="346" x2="1378" y2="346" stroke="#f46d43" stroke-width="1"/>
		<text x="1255" y="338.75" fill="#000000" font-family="Verdana" font-size="12">PIZZA_HAS_LABEL</text>
	</g>
	<text x="1210" y="454.9" fill="#1a9850" font-family="Verdana" font-size="12">0,N</text>
	<text x="1394" y="269.51" fill="#1a9850" font-family="Verdana" font-size="12">0,N</text>
</g>

<!-- Association PLACE -->
<g>
	<line x1="153" y1="481" x2="621" y2="481" stroke="#f46d43" stroke-width="2"/>
	<line x1="768" y1="481" x2="621" y2="481" stroke="#f46d43" stroke-width="2"/>
	<g>
		<path d="M634 456 a14 14 90 0 1 14 14 V481 h-54 V470 a14 14 90 0 1 14 -14" fill="#fdae61" stroke="#fdae61" stroke-width="0"/>
		<path d="M648 481 v11 a14 14 90 0 1 -14 14 H608 a14 14 90 0 1 -14 -14 V481 H54" fill="#fee08b" stroke="#fee08b" stroke-width="0"/>
		<rect x="594" y="456" width="54" height="50" fill="none" rx="14" stroke="#f46d43" stroke-width="2"/>
		<line x1="594" y1="481" x2="648" y2="481" stroke="#f46d43" stroke-width="1"/>
		<text x="602" y="473.75" fill="#000000" font-family="Verdana" font-size="12">PLACE</text>
	</g>
	<text x="198" y="498" fill="#1a9850" font-family="Verdana" font-size="12">0,N</text>
	<text x="699" y="473" fill="#1a9850" font-family="Verdana" font-size="12">1,1</text>
</g>

<!-- Association CONTAIN -->
<g>
	<line x1="768" y1="481" x2="930" y2="481" stroke="#f46d43" stroke-width="2"/>
	<line x1="1165" y1="481" x2="930" y2="481" stroke="#f46d43" stroke-width="2"/>
	<g>
		<path d="M952 456 a14 14 90 0 1 14 14 V481 h-72 V470 a14 14 90 0 1 14 -14" fill="#fdae61" stroke="#fdae61" stroke-width="0"/>
		<path d="M966 481 v11 a14 14 90 0 1 -14 14 H908 a14 14 90 0 1 -14 -14 V481 H72" fill="#fee08b" stroke="#fee08b" stroke-width="0"/>
		<rect x="894" y="456" width="72" height="50" fill="none" rx="14" stroke="#f46d43" stroke-width="2"/>
		<line x1="894" y1="481" x2="966" y2="481" stroke="#f46d43" stroke-width="1"/>
		<text x="901" y="473.75" fill="#000000" font-family="Verdana" font-size="12">CONTAIN</text>
		<text x="901" y="498.8" fill="#000000" font-family="Verdana" font-size="12">quantity</text>
	</g>
	<text x="816" y="473" fill="#1a9850" font-family="Verdana" font-size="12">0,N</text>
	<text x="1098" y="498" fill="#1a9850" font-family="Verdana" font-size="12">0,N</text>
</g>

<!-- Association PIZZA_HAS_TOPPING -->
<g>
	<line x1="1165" y1="481" x2="1313" y2="481" stroke="#f46d43" stroke-width="2"/>
	<line x1="1461" y1="481" x2="1313" y2="481" stroke="#f46d43" stroke-width="2"/>
	<g>
		<path d="M1373 456 a14 14 90 0 1 14 14 V481 h-148 V470 a14 14 90 0 1 14 -14" fill="#fdae61" stroke="#fdae61" stroke-width="0"/>
		<path d="M1387 481 v11 a14 14 90 0 1 -14 14 H1253 a14 14 90 0 1 -14 -14 V481 H148" fill="#fee08b" stroke="#fee08b" stroke-width="0"/>
		<rect x="1239" y="456" width="148" height="50" fill="none" rx="14" stroke="#f46d43" stroke-width="2"/>
		<line x1="1239" y1="481" x2="1387" y2="481" stroke="#f46d43" stroke-width="1"/>
		<text x="1247" y="473.75" fill="#000000" font-family="Verdana" font-size="12">PIZZA_HAS_TOPPING</text>
	</g>
	<text x="1210" y="498" fill="#1a9850" font-family="Verdana" font-size="12">0,N</text>
	<text x="1394" y="498" fill="#1a9850" font-family="Verdana" font-size="12">0,N</text>
</g>

<!-- Association MAKE -->
<g>
	<line x1="153" y1="481" x2="153" y2="616" stroke="#f46d43" stroke-width="2"/>
	<line x1="466" y1="785" x2="153" y2="616" stroke="#f46d43" stroke-width="2"/>
	<g>
		<path d="M164 591 a14 14 90 0 1 14 14 V616 h-50 V605 a14 14 90 0 1 14 -14" fill="#fdae61" stroke="#fdae61" stroke-width="0"/>
		<path d="M178 616 v11 a14 14 90 0 1 -14 14 H142 a14 14 90 0 1 -14 -14 V616 H50" fill="#fee08b" stroke="#fee08b" stroke-width="0"/>
		<rect x="128" y="591" width="50" height="50" fill="none" rx="14" stroke="#f46d43" stroke-width="2"/>
		<line x1="128" y1="616" x2="178" y2="616" stroke="#f46d43" stroke-width="1"/>
		<text x="136" y="608.75" fill="#000000" font-family="Verdana" font-size="12">MAKE</text>
	</g>
	<text x="126" y="583" fill="#1a9850" font-family="Verdana" font-size="12">0,N</text>
	<text x="400" y="776.19" fill="#1a9850" font-family="Verdana" font-size="12">1,1</text>
</g>

<!-- Association APP_USER_HAS_ADDRESS -->
<g>
	<line x1="153" y1="481" x2="301" y2="616" stroke="#f46d43" stroke-width="2"/>
	<line x1="466" y1="616" x2="301" y2="616" stroke="#f46d43" stroke-width="2"/>
	<g>
		<path d="M376 591 a14 14 90 0 1 14 14 V616 h-178 V605 a14 14 90 0 1 14 -14" fill="#fdae61" stroke="#fdae61" stroke-width="0"/>
		<path d="M390 616 v11 a14 14 90 0 1 -14 14 H226 a14 14 90 0 1 -14 -14 V616 H178" fill="#fee08b" stroke="#fee08b" stroke-width="0"/>
		<rect x="212" y="591" width="178" height="50" fill="none" rx="14" stroke="#f46d43" stroke-width="2"/>
		<line x1="212" y1="616" x2="390" y2="616" stroke="#f46d43" stroke-width="1"/>
		<text x="219" y="608.75" fill="#000000" font-family="Verdana" font-size="12">APP_USER_HAS_ADDRESS</text>
	</g>
	<text x="198" y="516.1" fill="#1a9850" font-family="Verdana" font-size="12">0,N</text>
	<text x="397" y="633" fill="#1a9850" font-family="Verdana" font-size="12">0,N</text>
</g>

<!-- Association ADDRESS_FOR_ORDER -->
<g>
	<line x1="768" y1="481" x2="621" y2="616" stroke="#f46d43" stroke-width="2"/>
	<line x1="466" y1="616" x2="621" y2="616" stroke="#f46d43" stroke-width="2"/>
	<g>
		<path d="M686 591 a14 14 90 0 1 14 14 V616 h-158 V605 a14 14 90 0 1 14 -14" fill="#fdae61" stroke="#fdae61" stroke-width="0"/>
		<path d="M700 616 v11 a14 14 90 0 1 -14 14 H556 a14 14 90 0 1 -14 -14 V616 H158" fill="#fee08b" stroke="#fee08b" stroke-width="0"/>
		<rect x="542" y="591" width="158" height="50" fill="none" rx="14" stroke="#f46d43" stroke-width="2"/>
		<line x1="542" y1="616" x2="700" y2="616" stroke="#f46d43" stroke-width="1"/>
		<text x="550" y="608.75" fill="#000000" font-family="Verdana" font-size="12">ADDRESS_FOR_ORDER</text>
		<text x="549" y="633.8" fill="#000000" font-family="Verdana" font-size="12">adress_type</text>
	</g>
	<text x="698" y="519.14" fill="#1a9850" font-family="Verdana" font-size="12">0,N</text>
	<text x="513" y="633" fill="#1a9850" font-family="Verdana" font-size="12">0,N</text>
</g>

<!-- Association RECEIVE -->
<g>
	<line x1="466" y1="785" x2="768" y2="616" stroke="#f46d43" stroke-width="2"/>
	<line x1="768" y1="481" x2="768" y2="616" stroke="#f46d43" stroke-width="2"/>
	<g>
		<path d="M788 591 a14 14 90 0 1 14 14 V616 h-68 V605 a14 14 90 0 1 14 -14" fill="#fdae61" stroke="#fdae61" stroke-width="0"/>
		<path d="M802 616 v11 a14 14 90 0 1 -14 14 H748 a14 14 90 0 1 -14 -14 V616 H68" fill="#fee08b" stroke="#fee08b" stroke-width="0"/>
		<rect x="734" y="591" width="68" height="50" fill="none" rx="14" stroke="#f46d43" stroke-width="2"/>
		<line x1="734" y1="616" x2="802" y2="616" stroke="#f46d43" stroke-width="1"/>
		<text x="741" y="608.75" fill="#000000" font-family="Verdana" font-size="12">RECEIVE</text>
	</g>
	<text x="511" y="775.26" fill="#1a9850" font-family="Verdana" font-size="12">0,N</text>
	<text x="773" y="574" fill="#1a9850" font-family="Verdana" font-size="12">O,N</text>
</g>

<!-- Association ORDER_HAS_PICKUP_MODE -->
<g>
	<line x1="768" y1="481" x2="930" y2="616" stroke="#f46d43" stroke-width="2"/>
	<line x1="930" y1="785" x2="930" y2="616" stroke="#f46d43" stroke-width="2"/>
	<g>
		<path d="M1010 591 a14 14 90 0 1 14 14 V616 h-188 V605 a14 14 90 0 1 14 -14" fill="#fdae61" stroke="#fdae61" stroke-width="0"/>
		<path d="M1024 616 v11 a14 14 90 0 1 -14 14 H850 a14 14 90 0 1 -14 -14 V616 H188" fill="#fee08b" stroke="#fee08b" stroke-width="0"/>
		<rect x="836" y="591" width="188" height="50" fill="none" rx="14" stroke="#f46d43" stroke-width="2"/>
		<line x1="836" y1="616" x2="1024" y2="616" stroke="#f46d43" stroke-width="1"/>
		<text x="843" y="608.75" fill="#000000" font-family="Verdana" font-size="12">ORDER_HAS_PICKUP_MODE</text>
	</g>
	<text x="816" y="515.0" fill="#1a9850" font-family="Verdana" font-size="12">1,1</text>
	<text x="935" y="718" fill="#1a9850" font-family="Verdana" font-size="12">0,N</text>
</g>

<!-- Association PIZZA_HAS_PICTURE -->
<g>
	<line x1="1165" y1="481" x2="1165" y2="616" stroke="#f46d43" stroke-width="2"/>
	<line x1="1165" y1="785" x2="1165" y2="616" stroke="#f46d43" stroke-width="2"/>
	<g>
		<path d="M1224 591 a14 14 90 0 1 14 14 V616 h-146 V605 a14 14 90 0 1 14 -14" fill="#fdae61" stroke="#fdae61" stroke-width="0"/>
		<path d="M1238 616 v11 a14 14 90 0 1 -14 14 H1106 a14 14 90 0 1 -14 -14 V616 H146" fill="#fee08b" stroke="#fee08b" stroke-width="0"/>
		<rect x="1092" y="591" width="146" height="50" fill="none" rx="14" stroke="#f46d43" stroke-width="2"/>
		<line x1="1092" y1="616" x2="1238" y2="616" stroke="#f46d43" stroke-width="1"/>
		<text x="1100" y="608.75" fill="#000000" font-family="Verdana" font-size="12">PIZZA_HAS_PICTURE</text>
	</g>
	<text x="1170" y="549" fill="#1a9850" font-family="Verdana" font-size="12">0,N</text>
	<text x="1138" y="726" fill="#1a9850" font-family="Verdana" font-size="12">0,N</text>
</g>

<!-- Association TOPPING_HAS_PICTURE -->
<g>
	<line x1="1461" y1="481" x2="1461" y2="616" stroke="#f46d43" stroke-width="2"/>
	<line x1="1165" y1="785" x2="1461" y2="616" stroke="#f46d43" stroke-width="2"/>
	<g>
		<path d="M1529 591 a14 14 90 0 1 14 14 V616 h-164 V605 a14 14 90 0 1 14 -14" fill="#fdae61" stroke="#fdae61" stroke-width="0"/>
		<path d="M1543 616 v11 a14 14 90 0 1 -14 14 H1393 a14 14 90 0 1 -14 -14 V616 H164" fill="#fee08b" stroke="#fee08b" stroke-width="0"/>
		<rect x="1379" y="591" width="164" height="50" fill="none" rx="14" stroke="#f46d43" stroke-width="2"/>
		<line x1="1379" y1="616" x2="1543" y2="616" stroke="#f46d43" stroke-width="1"/>
		<text x="1387" y="608.75" fill="#000000" font-family="Verdana" font-size="12">TOPPING_HAS_PICTURE</text>
	</g>
	<text x="1466" y="549" fill="#1a9850" font-family="Verdana" font-size="12">1,1</text>
	<text x="1210" y="774.73" fill="#1a9850" font-family="Verdana" font-size="12">0,N</text>
</g>

<!-- Entity SIZE -->
<g>
	<g>
		<rect x="1125" y="9" width="80" height="25" fill="#a6d96a" stroke="none" stroke-width="0" opacity="1"/>
		<rect x="1125" y="34" width="80" height="93" fill="#d9ef8b" stroke="none" stroke-width="0" opacity="1"/>
		<rect x="1125" y="9" width="80" height="118" fill="none" stroke="#66bd63" stroke-width="2" opacity="1"/>
		<line x1="1125" y1="34" x2="1205" y2="34" stroke="#66bd63" stroke-width="1"/>
	</g>
	<text x="1150" y="26.75" fill="#000000" font-family="Verdana" font-size="12">SIZE</text>
	<text x="1130" y="51.8" fill="#000000" font-family="Verdana" font-size="12">id</text>
	<line x1="1130" y1="54" x2="1142" y2="54" stroke="#000000" stroke-width="1"/>
	<text x="1130" y="68.8" fill="#000000" font-family="Verdana" font-size="12">type</text>
	<text x="1130" y="85.8" fill="#000000" font-family="Verdana" font-size="12">description</text>
	<text x="1130" y="102.8" fill="#000000" font-family="Verdana" font-size="12">created_at</text>
	<text x="1130" y="119.8" fill="#000000" font-family="Verdana" font-size="12">updated_at</text>
</g>

<!-- Entity PRICE -->
<g>
	<g>
		<rect x="1273" y="17" width="80" height="25" fill="#a6d96a" stroke="none" stroke-width="0" opacity="1"/>
		<rect x="1273" y="42" width="80" height="77" fill="#d9ef8b" stroke="none" stroke-width="0" opacity="1"/>
		<rect x="1273" y="17" width="80" height="102" fill="none" stroke="#66bd63" stroke-width="2" opacity="1"/>
		<line x1="1273" y1="42" x2="1353" y2="42" stroke="#66bd63" stroke-width="1"/>
	</g>
	<text x="1294" y="34.75" fill="#000000" font-family="Verdana" font-size="12">PRICE</text>
	<text x="1278" y="59.8" fill="#000000" font-family="Verdana" font-size="12">id</text>
	<line x1="1278" y1="62" x2="1290" y2="62" stroke="#000000" stroke-width="1"/>
	<text x="1278" y="76.8" fill="#000000" font-family="Verdana" font-size="12">amount</text>
	<text x="1278" y="93.8" fill="#000000" font-family="Verdana" font-size="12">created_at</text>
	<text x="1278" y="110.8" fill="#000000" font-family="Verdana" font-size="12">updated_at</text>
</g>

<!-- Entity ROLE -->
<g>
	<g>
		<rect x="113" y="194" width="80" height="25" fill="#a6d96a" stroke="none" stroke-width="0" opacity="1"/>
		<rect x="113" y="219" width="80" height="77" fill="#d9ef8b" stroke="none" stroke-width="0" opacity="1"/>
		<rect x="113" y="194" width="80" height="102" fill="none" stroke="#66bd63" stroke-width="2" opacity="1"/>
		<line x1="113" y1="219" x2="193" y2="219" stroke="#66bd63" stroke-width="1"/>
	</g>
	<text x="137" y="211.75" fill="#000000" font-family="Verdana" font-size="12">ROLE</text>
	<text x="118" y="236.8" fill="#000000" font-family="Verdana" font-size="12">id</text>
	<line x1="118" y1="239" x2="130" y2="239" stroke="#000000" stroke-width="1"/>
	<text x="118" y="253.8" fill="#000000" font-family="Verdana" font-size="12">type</text>
	<text x="118" y="270.8" fill="#000000" font-family="Verdana" font-size="12">created_at</text>
	<text x="118" y="287.8" fill="#000000" font-family="Verdana" font-size="12">updated_at</text>
</g>

<!-- Entity LABEL -->
<g>
	<g>
		<rect x="1421" y="177" width="80" height="25" fill="#a6d96a" stroke="none" stroke-width="0" opacity="1"/>
		<rect x="1421" y="202" width="80" height="111" fill="#d9ef8b" stroke="none" stroke-width="0" opacity="1"/>
		<rect x="1421" y="177" width="80" height="136" fill="none" stroke="#66bd63" stroke-width="2" opacity="1"/>
		<line x1="1421" y1="202" x2="1501" y2="202" stroke="#66bd63" stroke-width="1"/>
	</g>
	<text x="1442" y="194.75" fill="#000000" font-family="Verdana" font-size="12">LABEL</text>
	<text x="1426" y="219.8" fill="#000000" font-family="Verdana" font-size="12">id</text>
	<line x1="1426" y1="222" x2="1438" y2="222" stroke="#000000" stroke-width="1"/>
	<text x="1426" y="236.8" fill="#000000" font-family="Verdana" font-size="12">name</text>
	<text x="1426" y="253.8" fill="#000000" font-family="Verdana" font-size="12">description</text>
	<text x="1426" y="270.8" fill="#000000" font-family="Verdana" font-size="12">color</text>
	<text x="1426" y="287.8" fill="#000000" font-family="Verdana" font-size="12">created_at</text>
	<text x="1426" y="304.8" fill="#000000" font-family="Verdana" font-size="12">updated_at</text>
</g>

<!-- Entity APP_USER -->
<g>
	<g>
		<rect x="113" y="396" width="80" height="25" fill="#a6d96a" stroke="none" stroke-width="0" opacity="1"/>
		<rect x="113" y="421" width="80" height="145" fill="#d9ef8b" stroke="none" stroke-width="0" opacity="1"/>
		<rect x="113" y="396" width="80" height="170" fill="none" stroke="#66bd63" stroke-width="2" opacity="1"/>
		<line x1="113" y1="421" x2="193" y2="421" stroke="#66bd63" stroke-width="1"/>
	</g>
	<text x="121" y="413.75" fill="#000000" font-family="Verdana" font-size="12">APP_USER</text>
	<text x="118" y="438.8" fill="#000000" font-family="Verdana" font-size="12">id</text>
	<line x1="118" y1="441" x2="130" y2="441" stroke="#000000" stroke-width="1"/>
	<text x="118" y="455.8" fill="#000000" font-family="Verdana" font-size="12">last_name</text>
	<text x="118" y="472.8" fill="#000000" font-family="Verdana" font-size="12">first_name</text>
	<text x="118" y="489.8" fill="#000000" font-family="Verdana" font-size="12">phone</text>
	<text x="118" y="506.8" fill="#000000" font-family="Verdana" font-size="12">mail</text>
	<text x="118" y="523.8" fill="#000000" font-family="Verdana" font-size="12">password</text>
	<text x="118" y="540.8" fill="#000000" font-family="Verdana" font-size="12">created_at</text>
	<text x="118" y="557.8" fill="#000000" font-family="Verdana" font-size="12">updated_at</text>
</g>

<!-- Entity ORDER -->
<g>
	<g>
		<rect x="725" y="405" width="86" height="25" fill="#a6d96a" stroke="none" stroke-width="0" opacity="1"/>
		<rect x="725" y="430" width="86" height="127" fill="#d9ef8b" stroke="none" stroke-width="0" opacity="1"/>
		<rect x="725" y="405" width="86" height="152" fill="none" stroke="#66bd63" stroke-width="2" opacity="1"/>
		<line x1="725" y1="430" x2="811" y2="430" stroke="#66bd63" stroke-width="1"/>
	</g>
	<text x="746" y="422.75" fill="#000000" font-family="Verdana" font-size="12">ORDER</text>
	<text x="730" y="447.8" fill="#000000" font-family="Verdana" font-size="12">id</text>
	<line x1="730" y1="450" x2="742" y2="450" stroke="#000000" stroke-width="1"/>
	<text x="730" y="464.8" fill="#000000" font-family="Verdana" font-size="12">ref</text>
	<text x="730" y="481.8" fill="#000000" font-family="Verdana" font-size="12">total_price</text>
	<text x="730" y="498.8" fill="#000000" font-family="Verdana" font-size="12">comment</text>
	<text x="730" y="515.8" fill="#000000" font-family="Verdana" font-size="12">pickup_time</text>
	<text x="730" y="532.8" fill="#000000" font-family="Verdana" font-size="12">created_at</text>
	<text x="730" y="549.8" fill="#000000" font-family="Verdana" font-size="12">updated_at</text>
</g>

<!-- Entity PIZZA -->
<g>
	<g>
		<rect x="1125" y="430" width="80" height="25" fill="#a6d96a" stroke="none" stroke-width="0" opacity="1"/>
		<rect x="1125" y="455" width="80" height="77" fill="#d9ef8b" stroke="none" stroke-width="0" opacity="1"/>
		<rect x="1125" y="430" width="80" height="102" fill="none" stroke="#66bd63" stroke-width="2" opacity="1"/>
		<line x1="1125" y1="455" x2="1205" y2="455" stroke="#66bd63" stroke-width="1"/>
	</g>
	<text x="1146" y="447.75" fill="#000000" font-family="Verdana" font-size="12">PIZZA</text>
	<text x="1130" y="472.8" fill="#000000" font-family="Verdana" font-size="12">id</text>
	<line x1="1130" y1="475" x2="1142" y2="475" stroke="#000000" stroke-width="1"/>
	<text x="1130" y="489.8" fill="#000000" font-family="Verdana" font-size="12">name</text>
	<text x="1130" y="506.8" fill="#000000" font-family="Verdana" font-size="12">created_at</text>
	<text x="1130" y="523.8" fill="#000000" font-family="Verdana" font-size="12">updated_at</text>
</g>

<!-- Entity TOPPING -->
<g>
	<g>
		<rect x="1421" y="430" width="80" height="25" fill="#a6d96a" stroke="none" stroke-width="0" opacity="1"/>
		<rect x="1421" y="455" width="80" height="77" fill="#d9ef8b" stroke="none" stroke-width="0" opacity="1"/>
		<rect x="1421" y="430" width="80" height="102" fill="none" stroke="#66bd63" stroke-width="2" opacity="1"/>
		<line x1="1421" y1="455" x2="1501" y2="455" stroke="#66bd63" stroke-width="1"/>
	</g>
	<text x="1433" y="447.75" fill="#000000" font-family="Verdana" font-size="12">TOPPING</text>
	<text x="1426" y="472.8" fill="#000000" font-family="Verdana" font-size="12">id</text>
	<line x1="1426" y1="475" x2="1438" y2="475" stroke="#000000" stroke-width="1"/>
	<text x="1426" y="489.8" fill="#000000" font-family="Verdana" font-size="12">name</text>
	<text x="1426" y="506.8" fill="#000000" font-family="Verdana" font-size="12">created_at</text>
	<text x="1426" y="523.8" fill="#000000" font-family="Verdana" font-size="12">updated_at</text>
</g>

<!-- Entity ADDRESS -->
<g>
	<g>
		<rect x="424" y="523" width="84" height="25" fill="#a6d96a" stroke="none" stroke-width="0" opacity="1"/>
		<rect x="424" y="548" width="84" height="161" fill="#d9ef8b" stroke="none" stroke-width="0" opacity="1"/>
		<rect x="424" y="523" width="84" height="186" fill="none" stroke="#66bd63" stroke-width="2" opacity="1"/>
		<line x1="424" y1="548" x2="508" y2="548" stroke="#66bd63" stroke-width="1"/>
	</g>
	<text x="436" y="540.75" fill="#000000" font-family="Verdana" font-size="12">ADDRESS</text>
	<text x="429" y="565.8" fill="#000000" font-family="Verdana" font-size="12">id</text>
	<line x1="429" y1="568" x2="441" y2="568" stroke="#000000" stroke-width="1"/>
	<text x="429" y="582.8" fill="#000000" font-family="Verdana" font-size="12">street</text>
	<text x="429" y="599.8" fill="#000000" font-family="Verdana" font-size="12">city</text>
	<text x="429" y="616.8" fill="#000000" font-family="Verdana" font-size="12">postal_code</text>
	<text x="429" y="633.8" fill="#000000" font-family="Verdana" font-size="12">country</text>
	<text x="429" y="650.8" fill="#000000" font-family="Verdana" font-size="12">type</text>
	<text x="429" y="667.8" fill="#000000" font-family="Verdana" font-size="12">is_default</text>
	<text x="429" y="684.8" fill="#000000" font-family="Verdana" font-size="12">created_at</text>
	<text x="429" y="701.8" fill="#000000" font-family="Verdana" font-size="12">updated_at</text>
</g>

<!-- Entity PAYMENT -->
<g>
	<g>
		<rect x="426" y="734" width="80" height="25" fill="#a6d96a" stroke="none" stroke-width="0" opacity="1"/>
		<rect x="426" y="759" width="80" height="77" fill="#d9ef8b" stroke="none" stroke-width="0" opacity="1"/>
		<rect x="426" y="734" width="80" height="102" fill="none" stroke="#66bd63" stroke-width="2" opacity="1"/>
		<line x1="426" y1="759" x2="506" y2="759" stroke="#66bd63" stroke-width="1"/>
	</g>
	<text x="437" y="751.75" fill="#000000" font-family="Verdana" font-size="12">PAYMENT</text>
	<text x="431" y="776.8" fill="#000000" font-family="Verdana" font-size="12">id</text>
	<line x1="431" y1="779" x2="443" y2="779" stroke="#000000" stroke-width="1"/>
	<text x="431" y="793.8" fill="#000000" font-family="Verdana" font-size="12">amount</text>
	<text x="431" y="810.8" fill="#000000" font-family="Verdana" font-size="12">created_at</text>
	<text x="431" y="827.8" fill="#000000" font-family="Verdana" font-size="12">updated_at</text>
</g>

<!-- Entity PICKUP_MODE -->
<g>
	<g>
		<rect x="880" y="726" width="100" height="25" fill="#a6d96a" stroke="none" stroke-width="0" opacity="1"/>
		<rect x="880" y="751" width="100" height="93" fill="#d9ef8b" stroke="none" stroke-width="0" opacity="1"/>
		<rect x="880" y="726" width="100" height="118" fill="none" stroke="#66bd63" stroke-width="2" opacity="1"/>
		<line x1="880" y1="751" x2="980" y2="751" stroke="#66bd63" stroke-width="1"/>
	</g>
	<text x="885" y="743.75" fill="#000000" font-family="Verdana" font-size="12">PICKUP_MODE</text>
	<text x="885" y="768.8" fill="#000000" font-family="Verdana" font-size="12">id</text>
	<line x1="885" y1="771" x2="897" y2="771" stroke="#000000" stroke-width="1"/>
	<text x="885" y="785.8" fill="#000000" font-family="Verdana" font-size="12">type</text>
	<text x="885" y="802.8" fill="#000000" font-family="Verdana" font-size="12">description</text>
	<text x="885" y="819.8" fill="#000000" font-family="Verdana" font-size="12">created_at</text>
	<text x="885" y="836.8" fill="#000000" font-family="Verdana" font-size="12">updated_at</text>
</g>

<!-- Entity PICTURE -->
<g>
	<g>
		<rect x="1125" y="734" width="80" height="25" fill="#a6d96a" stroke="none" stroke-width="0" opacity="1"/>
		<rect x="1125" y="759" width="80" height="77" fill="#d9ef8b" stroke="none" stroke-width="0" opacity="1"/>
		<rect x="1125" y="734" width="80" height="102" fill="none" stroke="#66bd63" stroke-width="2" opacity="1"/>
		<line x1="1125" y1="759" x2="1205" y2="759" stroke="#66bd63" stroke-width="1"/>
	</g>
	<text x="1138" y="751.75" fill="#000000" font-family="Verdana" font-size="12">PICTURE</text>
	<text x="1130" y="776.8" fill="#000000" font-family="Verdana" font-size="12">id</text>
	<line x1="1130" y1="779" x2="1142" y2="779" stroke="#000000" stroke-width="1"/>
	<text x="1130" y="793.8" fill="#000000" font-family="Verdana" font-size="12">url</text>
	<text x="1130" y="810.8" fill="#000000" font-family="Verdana" font-size="12">created_at</text>
	<text x="1130" y="827.8" fill="#000000" font-family="Verdana" font-size="12">updated_at</text>
</g>
</svg>